<svg xmlns="http://www.w3.org/2000/svg" xmlns:xlink="http://www.w3.org/1999/xlink" width="200" zoomAndPan="magnify" viewBox="0 0 150 30.000001" height="40" preserveAspectRatio="xMidYMid meet" version="1.0"><defs><g/><clipPath id="562a3430da"><path d="M 82.558594 2.78125 L 137.285156 2.78125 L 137.285156 26.066406 L 82.558594 26.066406 Z M 82.558594 2.78125 " clip-rule="nonzero"/></clipPath></defs><g clip-path="url(#562a3430da)"><path fill="#1a544d" d="M 82.558594 2.78125 L 137.285156 2.78125 L 137.285156 26.066406 L 82.558594 26.066406 L 82.558594 2.78125 " fill-opacity="1" fill-rule="nonzero"/></g><g fill="#7ed957" fill-opacity="1"><g transform="translate(87.002775, 22.666899)"><g><path d="M 19.3125 -4.46875 L 19.40625 -4.015625 C 19.40625 -3.816406 19.304688 -3.585938 19.109375 -3.328125 C 18.578125 -2.628906 17.722656 -1.828125 16.546875 -0.921875 C 15.367188 -0.0234375 14.5 0.421875 13.9375 0.421875 C 13.375 0.421875 12.9375 0.257812 12.625 -0.0625 C 12.3125 -0.394531 12.15625 -0.769531 12.15625 -1.1875 C 12.15625 -1.6875 12.679688 -2.796875 13.734375 -4.515625 C 15.304688 -7.054688 17.316406 -10.03125 19.765625 -13.4375 C 19.253906 -12.90625 17.882812 -11.46875 15.65625 -9.125 C 10.707031 -3.945312 7.816406 -1.015625 6.984375 -0.328125 C 6.847656 -0.210938 6.648438 -0.15625 6.390625 -0.15625 C 6.128906 -0.15625 5.851562 -0.257812 5.5625 -0.46875 C 5.269531 -0.6875 5.125 -0.929688 5.125 -1.203125 L 5.125 -1.265625 C 5.15625 -1.597656 5.929688 -3.253906 7.453125 -6.234375 C 8.984375 -9.222656 10.269531 -11.601562 11.3125 -13.375 C 9.78125 -11.6875 8.234375 -9.804688 6.671875 -7.734375 C 3.703125 -3.804688 1.53125 -0.457031 0.15625 2.3125 C 0.03125 2.5625 -0.117188 2.6875 -0.296875 2.6875 C -0.472656 2.6875 -0.726562 2.644531 -1.0625 2.5625 C -1.78125 2.363281 -2.140625 2.023438 -2.140625 1.546875 C -2.140625 1.253906 -1.539062 0.210938 -0.34375 -1.578125 C 0.84375 -3.367188 2.21875 -5.328125 3.78125 -7.453125 C 5.351562 -9.578125 6.976562 -11.625 8.65625 -13.59375 C 10.976562 -16.300781 12.472656 -17.65625 13.140625 -17.65625 C 13.242188 -17.65625 13.34375 -17.628906 13.4375 -17.578125 C 13.539062 -17.523438 13.601562 -17.5 13.625 -17.5 C 13.644531 -17.5 13.671875 -17.515625 13.703125 -17.546875 C 13.804688 -17.671875 14.007812 -17.734375 14.3125 -17.734375 C 14.625 -17.734375 14.925781 -17.671875 15.21875 -17.546875 C 15.519531 -17.429688 15.671875 -17.296875 15.671875 -17.140625 C 15.671875 -17.046875 15.265625 -16.273438 14.453125 -14.828125 C 11.742188 -10.023438 9.925781 -6.722656 9 -4.921875 C 9.882812 -5.992188 11.15625 -7.421875 12.8125 -9.203125 C 14.46875 -10.984375 16.207031 -12.757812 18.03125 -14.53125 C 20.394531 -16.832031 21.804688 -17.984375 22.265625 -17.984375 C 22.453125 -17.984375 22.6875 -17.941406 22.96875 -17.859375 C 23.476562 -17.710938 23.960938 -17.640625 24.421875 -17.640625 C 24.546875 -17.617188 24.65625 -17.5625 24.75 -17.46875 C 24.84375 -17.382812 24.890625 -17.296875 24.890625 -17.203125 C 24.890625 -17.117188 24.863281 -17.050781 24.8125 -17 C 22.1875 -13.5 19.972656 -10.414062 18.171875 -7.75 C 16.367188 -5.082031 15.253906 -3.28125 14.828125 -2.34375 C 15.679688 -2.519531 16.953125 -3.535156 18.640625 -5.390625 C 18.703125 -5.484375 18.75 -5.546875 18.78125 -5.578125 C 18.820312 -5.609375 18.851562 -5.640625 18.875 -5.671875 C 19.007812 -5.835938 19.113281 -5.738281 19.1875 -5.375 C 19.21875 -5.164062 19.238281 -5.015625 19.25 -4.921875 C 19.269531 -4.835938 19.285156 -4.75 19.296875 -4.65625 C 19.304688 -4.570312 19.3125 -4.507812 19.3125 -4.46875 Z M 19.3125 -4.46875 "/></g></g></g><g fill="#7ed957" fill-opacity="1"><g transform="translate(106.186358, 22.666899)"><g><path d="M 10.015625 -9.21875 C 10.628906 -9.21875 10.9375 -9.007812 10.9375 -8.59375 C 10.9375 -8.363281 10.878906 -8.195312 10.765625 -8.09375 C 10.660156 -7.988281 10.4375 -7.640625 10.09375 -7.046875 C 9.75 -6.453125 9.367188 -5.691406 8.953125 -4.765625 C 8.535156 -3.835938 8.269531 -3.046875 8.15625 -2.390625 C 8.125 -2.304688 8.109375 -2.191406 8.109375 -2.046875 C 8.109375 -1.609375 8.226562 -1.390625 8.46875 -1.390625 C 8.71875 -1.390625 9.007812 -1.503906 9.34375 -1.734375 C 9.675781 -1.960938 9.96875 -2.207031 10.21875 -2.46875 C 10.476562 -2.726562 10.734375 -2.992188 10.984375 -3.265625 C 11.234375 -3.546875 11.378906 -3.707031 11.421875 -3.75 C 11.472656 -3.789062 11.546875 -3.8125 11.640625 -3.8125 C 11.796875 -3.8125 11.890625 -3.691406 11.921875 -3.453125 C 11.953125 -3.222656 11.96875 -2.984375 11.96875 -2.734375 C 11.96875 -2.484375 11.945312 -2.304688 11.90625 -2.203125 C 11.664062 -1.742188 11.144531 -1.191406 10.34375 -0.546875 C 9.550781 0.0976562 8.828125 0.421875 8.171875 0.421875 C 7.523438 0.421875 7.046875 0.222656 6.734375 -0.171875 C 6.429688 -0.566406 6.28125 -1.003906 6.28125 -1.484375 C 6.28125 -1.960938 6.363281 -2.382812 6.53125 -2.75 C 5.851562 -1.875 5.078125 -1.132812 4.203125 -0.53125 C 3.335938 0.0703125 2.628906 0.375 2.078125 0.375 C 1.535156 0.375 1.085938 0.207031 0.734375 -0.125 C 0.296875 -0.53125 0.078125 -1.097656 0.078125 -1.828125 C 0.078125 -2.566406 0.238281 -3.304688 0.5625 -4.046875 C 0.894531 -4.785156 1.328125 -5.457031 1.859375 -6.0625 C 2.390625 -6.675781 2.972656 -7.234375 3.609375 -7.734375 C 4.953125 -8.785156 6.191406 -9.3125 7.328125 -9.3125 C 7.765625 -9.3125 8.117188 -9.238281 8.390625 -9.09375 C 8.671875 -8.945312 8.847656 -8.765625 8.921875 -8.546875 C 9.109375 -8.835938 9.269531 -9.019531 9.40625 -9.09375 C 9.539062 -9.175781 9.742188 -9.21875 10.015625 -9.21875 Z M 8.390625 -7.875 C 7.003906 -7.875 5.570312 -7.101562 4.09375 -5.5625 C 3.570312 -5.019531 3.085938 -4.363281 2.640625 -3.59375 C 2.203125 -2.820312 1.984375 -2.296875 1.984375 -2.015625 C 1.984375 -1.734375 2.066406 -1.59375 2.234375 -1.59375 C 2.460938 -1.59375 3.09375 -2.035156 4.125 -2.921875 C 5.15625 -3.816406 5.84375 -4.476562 6.1875 -4.90625 C 6.5625 -5.375 7.296875 -6.363281 8.390625 -7.875 Z M 8.390625 -7.875 "/></g></g></g><g fill="#7ed957" fill-opacity="1"><g transform="translate(116.299574, 22.666899)"><g><path d="M 4.71875 -6.609375 C 6.625 -8.773438 8.25 -9.859375 9.59375 -9.859375 C 9.925781 -9.859375 10.195312 -9.757812 10.40625 -9.5625 C 10.625 -9.363281 10.734375 -9.109375 10.734375 -8.796875 C 10.734375 -8.484375 10.507812 -7.957031 10.0625 -7.21875 C 9.613281 -6.476562 9.195312 -5.851562 8.8125 -5.34375 C 8.613281 -5.082031 8.382812 -4.953125 8.125 -4.953125 C 7.875 -4.953125 7.675781 -5.039062 7.53125 -5.21875 C 7.394531 -5.40625 7.328125 -5.628906 7.328125 -5.890625 C 7.328125 -6.441406 7.625 -7.070312 8.21875 -7.78125 L 8.203125 -7.796875 C 7.929688 -7.773438 7.269531 -7.25 6.21875 -6.21875 C 5.164062 -5.195312 4.265625 -4.28125 3.515625 -3.46875 C 2.773438 -2.65625 1.972656 -1.664062 1.109375 -0.5 C 0.859375 -0.144531 0.644531 0.03125 0.46875 0.03125 C 0.300781 0.03125 0.078125 -0.0195312 -0.203125 -0.125 C -0.492188 -0.238281 -0.671875 -0.320312 -0.734375 -0.375 C -0.796875 -0.425781 -0.828125 -0.503906 -0.828125 -0.609375 C -0.828125 -0.722656 -0.789062 -0.851562 -0.71875 -1 C -0.65625 -1.15625 -0.535156 -1.367188 -0.359375 -1.640625 C -0.191406 -1.921875 0.0664062 -2.367188 0.421875 -2.984375 C 0.773438 -3.597656 1.320312 -4.523438 2.0625 -5.765625 C 2.800781 -7.015625 3.242188 -7.769531 3.390625 -8.03125 C 3.703125 -8.5625 3.957031 -8.945312 4.15625 -9.1875 C 4.507812 -9.65625 5.125 -9.890625 6 -9.890625 C 6.1875 -9.890625 6.28125 -9.765625 6.28125 -9.515625 C 6.28125 -9.140625 5.929688 -8.425781 5.234375 -7.375 Z M 4.71875 -6.609375 "/></g></g></g><g fill="#7ed957" fill-opacity="1"><g transform="translate(124.969786, 22.666899)"><g><path d="M 9.09375 -15.625 L 9.59375 -15.5 C 9.664062 -15.5 9.726562 -15.460938 9.78125 -15.390625 C 9.84375 -15.316406 9.875 -15.25 9.875 -15.1875 C 9.875 -15.125 9.785156 -14.945312 9.609375 -14.65625 C 9.441406 -14.375 9.242188 -14.050781 9.015625 -13.6875 C 8.785156 -13.332031 8.664062 -13.140625 8.65625 -13.109375 C 9.28125 -13.160156 9.722656 -13.1875 9.984375 -13.1875 C 10.253906 -13.1875 10.4375 -13.164062 10.53125 -13.125 C 10.625 -13.09375 10.734375 -12.992188 10.859375 -12.828125 C 10.984375 -12.660156 11.097656 -12.535156 11.203125 -12.453125 C 11.304688 -12.367188 11.359375 -12.238281 11.359375 -12.0625 C 11.359375 -11.894531 11.253906 -11.753906 11.046875 -11.640625 C 10.847656 -11.523438 10.628906 -11.453125 10.390625 -11.421875 C 8.515625 -11.234375 7.484375 -11.140625 7.296875 -11.140625 C 6.640625 -10.128906 5.722656 -8.5625 4.546875 -6.4375 C 3.367188 -4.320312 2.742188 -3 2.671875 -2.46875 C 2.640625 -2.21875 2.625 -2.019531 2.625 -1.875 C 2.625 -1.550781 2.785156 -1.390625 3.109375 -1.390625 C 3.441406 -1.390625 3.8125 -1.515625 4.21875 -1.765625 C 4.625 -2.023438 5 -2.304688 5.34375 -2.609375 C 6.25 -3.421875 6.734375 -3.828125 6.796875 -3.828125 C 7.003906 -3.828125 7.109375 -3.460938 7.109375 -2.734375 C 7.109375 -2.335938 6.925781 -1.976562 6.5625 -1.65625 C 5.75 -0.957031 5.0625 -0.425781 4.5 -0.0625 C 3.9375 0.289062 3.378906 0.46875 2.828125 0.46875 C 2.703125 0.46875 2.585938 0.453125 2.484375 0.421875 C 1.835938 0.304688 1.363281 0.0703125 1.0625 -0.28125 C 0.757812 -0.632812 0.609375 -1.109375 0.609375 -1.703125 C 0.617188 -2.304688 0.796875 -3.035156 1.140625 -3.890625 C 1.492188 -4.742188 1.9375 -5.648438 2.46875 -6.609375 C 3.34375 -8.179688 4.21875 -9.65625 5.09375 -11.03125 L 4.640625 -10.96875 C 3.703125 -10.863281 3.15625 -10.8125 3 -10.8125 L 2.890625 -10.8125 C 2.648438 -10.8125 2.421875 -10.859375 2.203125 -10.953125 C 1.984375 -11.046875 1.875 -11.160156 1.875 -11.296875 C 1.875 -11.429688 1.929688 -11.5625 2.046875 -11.6875 C 2.171875 -11.820312 2.242188 -11.925781 2.265625 -12 C 2.328125 -12.175781 2.539062 -12.375 2.90625 -12.59375 C 3.269531 -12.8125 3.546875 -12.925781 3.734375 -12.9375 C 3.921875 -12.945312 4.097656 -12.957031 4.265625 -12.96875 C 4.441406 -12.976562 4.640625 -12.984375 4.859375 -12.984375 C 5.078125 -12.992188 5.238281 -13.003906 5.34375 -13.015625 L 6.4375 -13.0625 C 7.113281 -14.082031 7.578125 -14.738281 7.828125 -15.03125 C 8.085938 -15.320312 8.238281 -15.476562 8.28125 -15.5 C 8.320312 -15.53125 8.40625 -15.546875 8.53125 -15.546875 Z M 9.09375 -15.625 "/></g></g></g><g fill="#18a15c" fill-opacity="1"><g transform="translate(12.269167, 25.766252)"><g><path d="M 10.449219 -16.441406 C 13.332031 -16.441406 15.320312 -18.613281 15.320312 -21.425781 L 5.761719 -21.425781 C 3.203125 -21.355469 1.144531 -19.277344 1.144531 -16.714844 L 1.144531 0.25 L 1.1875 0.25 C 3.796875 0.25 6.171875 -1.875 6.171875 -4.480469 L 6.171875 -7.707031 L 8.277344 -7.707031 C 11.339844 -7.707031 13.214844 -9.648438 13.214844 -12.347656 L 6.171875 -12.347656 L 6.171875 -16.441406 Z M 10.449219 -16.441406 "/></g></g></g><g fill="#18a15c" fill-opacity="1"><g transform="translate(27.854, 25.766252)"><g><path d="M 16.484375 -19.617188 C 16.347656 -19.917969 16.121094 -20.214844 15.800781 -20.488281 C 14.929688 -21.332031 13.71875 -21.746094 12.417969 -21.859375 C 11.640625 -21.929688 9.375 -21.972656 8.507812 -21.972656 C 7.570312 -21.972656 6.722656 -21.929688 5.898438 -21.859375 C 3.292969 -21.609375 1.144531 -19.777344 1.144531 -17.21875 L 1.144531 -4.390625 C 1.144531 -3.5 1.394531 -2.699219 1.828125 -1.988281 C 1.964844 -1.691406 2.195312 -1.394531 2.515625 -1.121094 C 3.382812 -0.273438 4.597656 0.136719 5.898438 0.25 C 6.675781 0.320312 7.5 0.367188 8.367188 0.367188 C 9.304688 0.367188 11.59375 0.320312 12.417969 0.25 C 15.023438 0 17.171875 -1.828125 17.171875 -4.390625 L 17.171875 -17.21875 C 17.171875 -18.109375 16.921875 -18.910156 16.484375 -19.617188 Z M 12.417969 -5.855469 C 12.300781 -5.144531 11.820312 -4.640625 11.089844 -4.640625 L 11.066406 -4.617188 L 7.226562 -4.617188 C 6.472656 -4.617188 6.015625 -5.144531 5.898438 -5.855469 L 5.898438 -15.890625 C 6.015625 -16.601562 6.472656 -17.105469 7.226562 -17.105469 L 11.089844 -17.105469 C 11.820312 -17.105469 12.300781 -16.601562 12.417969 -15.890625 Z M 12.417969 -5.855469 "/></g></g></g><g fill="#18a15c" fill-opacity="1"><g transform="translate(46.203876, 25.766252)"><g><path d="M 16.484375 -19.617188 C 16.347656 -19.917969 16.121094 -20.214844 15.800781 -20.488281 C 14.929688 -21.332031 13.71875 -21.746094 12.417969 -21.859375 C 11.640625 -21.929688 9.375 -21.972656 8.507812 -21.972656 C 7.570312 -21.972656 6.722656 -21.929688 5.898438 -21.859375 C 3.292969 -21.609375 1.144531 -19.777344 1.144531 -17.21875 L 1.144531 -4.390625 C 1.144531 -3.5 1.394531 -2.699219 1.828125 -1.988281 C 1.964844 -1.691406 2.195312 -1.394531 2.515625 -1.121094 C 3.382812 -0.273438 4.597656 0.136719 5.898438 0.25 C 6.675781 0.320312 7.5 0.367188 8.367188 0.367188 C 9.304688 0.367188 11.59375 0.320312 12.417969 0.25 C 15.023438 0 17.171875 -1.828125 17.171875 -4.390625 L 17.171875 -17.21875 C 17.171875 -18.109375 16.921875 -18.910156 16.484375 -19.617188 Z M 12.417969 -5.855469 C 12.300781 -5.144531 11.820312 -4.640625 11.089844 -4.640625 L 11.066406 -4.617188 L 7.226562 -4.617188 C 6.472656 -4.617188 6.015625 -5.144531 5.898438 -5.855469 L 5.898438 -15.890625 C 6.015625 -16.601562 6.472656 -17.105469 7.226562 -17.105469 L 11.089844 -17.105469 C 11.820312 -17.105469 12.300781 -16.601562 12.417969 -15.890625 Z M 12.417969 -5.855469 "/></g></g></g><g fill="#18a15c" fill-opacity="1"><g transform="translate(64.553752, 25.766252)"><g><path d="M 8.847656 -21.792969 L 5.898438 -21.792969 C 5.898438 -21.792969 5.898438 -21.792969 5.875 -21.792969 L 5.375 -21.792969 L 5.375 -21.769531 C 2.835938 -21.515625 1.144531 -19.503906 1.144531 -17.082031 L 1.144531 0.0898438 C 1.144531 0.0898438 1.167969 0.0898438 1.167969 0.0898438 L 8.847656 0.0898438 C 13.332031 0.0898438 16.761719 -3.246094 16.761719 -7.203125 L 16.761719 -13.878906 C 16.761719 -18.910156 13.332031 -21.792969 8.847656 -21.792969 Z M 12.117188 -7.933594 C 12.117188 -6.128906 10.65625 -4.527344 8.847656 -4.527344 L 5.898438 -4.527344 C 5.898438 -4.574219 5.898438 -4.597656 5.898438 -4.640625 L 5.898438 -17.171875 L 8.847656 -17.171875 C 10.65625 -17.171875 12.117188 -15.570312 12.117188 -13.742188 Z M 12.117188 -7.933594 "/></g></g></g></svg>